<?xml version="1.0" encoding="utf-8"?>
<!-- Generator: Adobe Illustrator 24.1.2, SVG Export Plug-In . SVG Version: 6.00 Build 0)  -->
<svg version="1.1" id="Capa_1" xmlns="http://www.w3.org/2000/svg" xmlns:xlink="http://www.w3.org/1999/xlink" x="0px" y="0px"
	 viewBox="0 0 512 512" style="enable-background:new 0 0 512 512;" xml:space="preserve">
<style type="text/css">
	.st0{fill:#38AEB3;}
	.st1{fill:#FFFFFF;stroke:#FFFFFF;stroke-miterlimit:10;}
	.st2{fill:#2E2E2E;}
</style>
<g>
	<path class="st0" d="M56,471h400c36.1,0,58.1-39.4,39-69.8L295,62.5c-18-28.7-60.1-28.7-78.1,0L17,401.2C-2,431.6,20,471,56,471
		L56,471z"/>
	<path class="st1" d="M256,91L61,421h390L256,91z"/>
	<circle class="st0" cx="256" cy="360" r="20"/>
	<path class="st0" d="M276,217c0,11-9,83-20,83s-20-72-20-83s9-20,20-20S276,206,276,217z"/>
	<g>
		<path class="st2" d="M56,481c-7.8,0-15.4-1.6-22.5-4.6c-6.7-2.9-12.7-7.1-17.8-12.4c-5-5.2-8.9-11.1-11.6-17.8
			c-2.8-6.7-4.1-13.8-4.2-21C0,415,2.9,404.9,8.5,396L208.4,57.4l0.1-0.2c5.2-8.3,12.4-15.1,21-19.6c8.1-4.3,17.2-6.6,26.4-6.6h0.1
			h0.1c9.2,0,18.3,2.3,26.4,6.6c8.5,4.5,15.8,11.3,21,19.6l0.1,0.2l127.5,215.9l0,0c1.4,2.3,1.7,5,1.1,7.6c-0.7,2.6-2.3,4.8-4.6,6.1
			c-1.5,0.9-3.3,1.4-5.1,1.4c-3.5,0-6.8-1.9-8.6-4.9L286.5,67.8C279.8,57.2,268.7,51,256,51c-12.7,0-23.8,6.1-30.5,16.7L25.6,406.3
			l-0.1,0.2c-3.6,5.8-5.5,12.1-5.5,18.7c0,9.1,3.7,18.2,10.1,24.9C37,457.2,46,461,56.1,461H456c10.1,0,19-3.8,25.9-10.9
			c6.5-6.7,10.1-15.7,10.1-24.9c0-6.6-1.9-12.9-5.5-18.7l-0.1-0.2L459.6,361c-1.4-2.3-1.7-5-1.1-7.6c0.7-2.6,2.3-4.8,4.6-6.1
			c1.5-0.9,3.3-1.4,5.1-1.4c3.5,0,6.8,1.9,8.6,4.9l26.7,45.2c5.5,8.9,8.5,19,8.5,29.2c0,7.2-1.4,14.3-4.1,21
			c-2.7,6.6-6.6,12.6-11.6,17.8c-5,5.3-11,9.4-17.7,12.4c-7.1,3.1-14.6,4.6-22.5,4.6H56z"/>
		<path class="st2" d="M451,431H61c-3.6,0-6.9-1.9-8.7-5s-1.8-7,0.1-10l195-330c1.8-3,5.1-4.9,8.6-4.9s6.8,1.9,8.6,4.9l195,330
			c1.8,3.1,1.9,6.9,0.1,10C457.9,429.1,454.6,431,451,431z M78.5,411h355L256,110.7L78.5,411z"/>
		<path class="st2" d="M256,390c-16.5,0-30-13.5-30-30s13.5-30,30-30s30,13.5,30,30S272.5,390,256,390z M256,350
			c-5.5,0-10,4.5-10,10s4.5,10,10,10s10-4.5,10-10S261.5,350,256,350z"/>
		<path class="st2" d="M256,310c-11,0-15.4-12.7-17.2-18.1c-2.3-6.8-4.6-16-6.7-27.4c-3.7-20-6-41.1-6-47.5c0-16.5,13.5-30,30-30
			s30,13.5,30,30c0,6.4-2.3,27.5-6,47.5c-2.1,11.4-4.4,20.6-6.7,27.4C271.4,297.3,267,310,256,310z M256,207c-5.5,0-10,4.5-10,10
			c0,3.8,1.6,20.4,4.7,38.4c1.9,11.3,3.8,19.1,5.3,24.6c1.5-5.4,3.3-13.3,5.3-24.6c3.1-18,4.7-34.6,4.7-38.4
			C266,211.5,261.5,207,256,207z"/>
		<circle class="st2" cx="445.4" cy="317.2" r="10"/>
	</g>
</g>
</svg>
